<mxfile host="app.diagrams.net" modified="2022-10-12T01:26:39.351Z" agent="5.0 (Windows NT 10.0; Win64; x64) AppleWebKit/537.36 (KHTML, like Gecko) Chrome/105.0.0.0 Safari/537.36" etag="CW5FBi90xbIGoci4AKSk" version="20.4.0" type="github">
  <diagram id="arvyNKeZICVCUe79Kb5X" name="第 1 页">
    <mxGraphModel dx="960" dy="587" grid="1" gridSize="10" guides="1" tooltips="1" connect="1" arrows="1" fold="1" page="1" pageScale="1" pageWidth="827" pageHeight="1169" math="0" shadow="0">
      <root>
        <mxCell id="0" />
        <mxCell id="1" parent="0" />
        <mxCell id="ujevJZKqID5bwqPzUARX-1" value="&lt;span&gt;&lt;font style=&quot;font-size: 15px;&quot;&gt;&lt;b&gt;设置合适的散列哈希函数&lt;/b&gt;&lt;/font&gt;&lt;/span&gt;" style="rounded=0;whiteSpace=wrap;html=1;strokeWidth=2;" vertex="1" parent="1">
          <mxGeometry x="250" y="80" width="270" height="70" as="geometry" />
        </mxCell>
        <mxCell id="ujevJZKqID5bwqPzUARX-2" value="&lt;span style=&quot;font-size:16.0pt;font-family:仿宋_GB2312;&lt;br/&gt;mso-hansi-font-family:&amp;quot;Times New Roman&amp;quot;;mso-bidi-font-family:仿宋_GB2312;&lt;br/&gt;mso-ansi-language:EN-US;mso-fareast-language:ZH-CN;mso-bidi-language:AR-SA&quot;&gt;设定业务需要自动分片的阈值&lt;/span&gt;以及通过流量控制策略判断是否需要重分片" style="rounded=0;whiteSpace=wrap;html=1;" vertex="1" parent="1">
          <mxGeometry x="250" y="200" width="270" height="70" as="geometry" />
        </mxCell>
        <mxCell id="ujevJZKqID5bwqPzUARX-3" value="通过流量控制策略判断时间内是否需要重分片" style="rounded=0;whiteSpace=wrap;html=1;" vertex="1" parent="1">
          <mxGeometry x="250" y="310" width="270" height="70" as="geometry" />
        </mxCell>
        <mxCell id="ujevJZKqID5bwqPzUARX-4" value="将对应的流量数与分布式系统的机器数进行取整" style="rounded=0;whiteSpace=wrap;html=1;" vertex="1" parent="1">
          <mxGeometry x="251" y="420" width="270" height="70" as="geometry" />
        </mxCell>
        <mxCell id="ujevJZKqID5bwqPzUARX-5" value="将取整后的数通过随机数的方式拼接在对应的主键的开始位置" style="rounded=0;whiteSpace=wrap;html=1;" vertex="1" parent="1">
          <mxGeometry x="250" y="515" width="270" height="70" as="geometry" />
        </mxCell>
        <mxCell id="ujevJZKqID5bwqPzUARX-6" value="对新的主键进行重分片操作" style="rounded=0;whiteSpace=wrap;html=1;" vertex="1" parent="1">
          <mxGeometry x="250" y="610" width="270" height="70" as="geometry" />
        </mxCell>
      </root>
    </mxGraphModel>
  </diagram>
</mxfile>
